<?xml version="1.0" standalone="no"?>
<!DOCTYPE svg PUBLIC "-//W3C//DTD SVG 20010904//EN"
 "http://www.w3.org/TR/2001/REC-SVG-20010904/DTD/svg10.dtd">
<svg version="1.0" xmlns="http://www.w3.org/2000/svg"
 width="1254.000000pt" height="1254.000000pt" viewBox="0 0 1254.000000 1254.000000"
 preserveAspectRatio="xMidYMid meet">

<g transform="translate(0.000000,1254.000000) scale(0.100000,-0.100000)"
fill="#000000" stroke="none">
<path d="M6135 12003 c-1302 -34 -2554 -489 -3547 -1290 -338 -272 -600 -536
-877 -883 -1015 -1270 -1423 -2895 -1127 -4491 148 -797 497 -1628 963 -2294
217 -310 387 -511 672 -795 609 -607 1295 -1042 2108 -1336 326 -118 824 -232
1213 -278 376 -45 872 -54 1200 -22 967 93 1826 389 2633 908 736 473 1380
1139 1833 1894 428 715 690 1495 780 2324 21 195 30 745 15 938 -48 609 -179
1184 -392 1720 -137 343 -371 788 -576 1092 -589 878 -1422 1579 -2393 2015
-765 344 -1651 520 -2505 498z m690 -157 c585 -65 1030 -174 1550 -379 166
-66 499 -225 655 -313 374 -211 763 -498 1070 -789 340 -322 607 -641 848
-1012 51 -77 92 -143 92 -146 0 -2 24 -44 54 -93 70 -116 213 -393 266 -514
23 -52 50 -113 60 -135 81 -180 234 -650 279 -860 12 -55 26 -116 31 -135 5
-19 12 -57 16 -85 3 -27 9 -59 11 -70 35 -143 75 -464 93 -730 33 -499 -19
-1081 -141 -1585 -71 -293 -203 -679 -305 -897 -19 -39 -34 -74 -34 -78 0 -17
-185 -372 -260 -501 -195 -331 -346 -540 -645 -891 -63 -74 -253 -269 -340
-349 -536 -494 -1074 -848 -1696 -1114 -873 -375 -1848 -518 -2814 -414 -811
87 -1640 372 -2305 792 -130 82 -354 236 -415 284 -302 240 -429 353 -635 564
-120 123 -331 363 -413 469 -76 100 -107 147 -101 158 4 6 3 9 -1 5 -8 -8
-104 115 -106 136 -3 27 4 52 17 66 9 9 14 10 14 3 0 -7 -4 -15 -10 -18 -11
-7 -9 -33 4 -54 7 -10 6 -12 -4 -6 -9 5 -11 4 -6 -3 10 -16 28 -15 24 1 -4 16
41 60 61 62 9 0 21 4 28 8 7 5 10 0 6 -15 -4 -18 -3 -20 6 -8 8 12 13 8 25
-22 9 -20 20 -40 26 -43 6 -4 8 -11 5 -16 -4 -5 -1 -9 5 -9 7 0 10 -6 7 -14
-4 -10 0 -12 14 -9 19 5 19 6 -1 32 -12 14 -35 47 -51 73 -17 27 -35 48 -40
48 -5 0 -8 3 -7 8 4 15 -64 112 -74 105 -6 -3 -8 -1 -5 5 4 5 -13 41 -38 79
-25 37 -45 73 -45 78 0 6 -5 3 -11 -5 -9 -13 -10 -12 -5 2 3 10 -21 62 -60
130 -167 288 -343 691 -464 1061 -136 419 -207 779 -245 1245 -8 101 -15 274
-16 385 0 111 -4 210 -8 220 -6 17 -8 17 -20 3 -11 -14 -11 -16 3 -16 14 0 16
-19 15 -162 l-2 -163 -12 85 -12 85 -3 -75 c-1 -41 -5 -97 -9 -125 -5 -31 -7
11 -5 110 l2 160 -8 -135 c-10 -184 -12 -194 -20 -140 l-7 45 -1 -42 c-1 -24
-6 -43 -12 -43 -5 0 -10 -18 -10 -40 0 -22 -4 -40 -10 -40 -5 0 -10 18 -10 40
0 54 -20 51 -22 -2 0 -24 -5 34 -10 127 -8 174 3 516 23 690 108 942 411 1759
933 2515 302 437 668 831 1091 1171 271 218 633 455 925 603 52 27 100 52 105
56 15 11 329 153 430 195 248 102 627 219 911 280 308 67 530 98 949 129 120
9 688 -4 820 -18z m-6162 -5931 c3 -37 2 -51 -3 -35 -8 25 -13 107 -6 99 2 -2
6 -31 9 -64z m154 -167 c-3 -7 -5 -2 -5 12 0 14 2 19 5 13 2 -7 2 -19 0 -25z
m10 -60 c-3 -8 -6 -5 -6 6 -1 11 2 17 5 13 3 -3 4 -12 1 -19z m-140 -35 c-3
-10 -5 -4 -5 12 0 17 2 24 5 18 2 -7 2 -21 0 -30z m138 7 c3 -5 1 -10 -4 -10
-6 0 -11 5 -11 10 0 6 2 10 4 10 3 0 8 -4 11 -10z m-14 -91 c-5 -13 -10 -19
-10 -12 -1 15 10 45 15 40 3 -2 0 -15 -5 -28z m-101 -18 c0 -15 2 -50 5 -77 4
-43 4 -44 -4 -14 -17 67 -21 120 -11 120 5 0 10 -13 10 -29z m97 -98 c-3 -10
-5 -2 -5 17 0 19 2 27 5 18 2 -10 2 -26 0 -35z m50 -25 c-3 -7 -5 -2 -5 12 0
14 2 19 5 13 2 -7 2 -19 0 -25z m-130 -30 c-3 -8 -6 -5 -6 6 -1 11 2 17 5 13
3 -3 4 -12 1 -19z m43 13 c0 -6 -4 -13 -10 -16 -5 -3 -10 1 -10 9 0 9 5 16 10
16 6 0 10 -4 10 -9z m-1 -200 c7 -35 10 -65 8 -67 -2 -3 -10 24 -17 58 -6 35
-14 70 -17 78 -2 9 -1 11 5 5 4 -5 14 -39 21 -74z m148 -53 c-3 -8 -6 -5 -6 6
-1 11 2 17 5 13 3 -3 4 -12 1 -19z m-130 -65 c-3 -10 -5 -4 -5 12 0 17 2 24 5
18 2 -7 2 -21 0 -30z m153 -508 c0 -5 -5 -3 -10 5 -5 8 -10 20 -10 25 0 6 5 3
10 -5 5 -8 10 -19 10 -25z m7 -37 c-3 -8 -6 -5 -6 6 -1 11 2 17 5 13 3 -3 4
-12 1 -19z m151 -383 c-3 -3 -9 2 -12 12 -6 14 -5 15 5 6 7 -7 10 -15 7 -18z
m26 -61 c3 -8 2 -12 -4 -9 -6 3 -10 10 -10 16 0 14 7 11 14 -7z m64 -149 c-3
-3 -9 2 -12 12 -6 14 -5 15 5 6 7 -7 10 -15 7 -18z m85 -165 c7 -29 1 -24 -17
11 -12 23 -12 28 -2 20 8 -7 16 -21 19 -31z m187 -61 c0 -5 -4 -9 -8 -9 -5 0
-9 7 -9 15 0 8 4 12 9 9 4 -3 8 -9 8 -15z m-142 -34 c-3 -3 -9 2 -12 12 -6 14
-5 15 5 6 7 -7 10 -15 7 -18z m52 -75 c6 0 10 -4 10 -10 0 -20 -20 -9 -35 20
-19 38 -19 54 1 18 8 -16 19 -28 24 -28z m161 -43 c-10 -9 -11 -8 -5 6 3 10 9
15 12 12 3 -3 0 -11 -7 -18z m-129 -12 c-8 -16 -9 -16 -15 -1 -4 10 -3 15 3
11 6 -3 10 -1 10 6 0 7 3 10 6 6 3 -3 2 -13 -4 -22z m143 -39 c0 -15 -4 -21
-9 -16 -5 5 -6 16 -3 24 9 22 12 20 12 -8z m-77 -59 c7 3 10 -1 6 -11 -7 -18
21 -62 30 -48 3 6 -1 12 -9 16 -8 3 -15 11 -15 17 0 9 3 9 14 0 11 -9 15 -9
19 1 3 7 5 3 3 -9 -1 -12 -5 -26 -9 -29 -12 -12 -8 -26 5 -18 7 4 8 3 4 -4 -4
-6 -2 -21 4 -32 6 -11 9 -20 6 -20 -7 0 -106 170 -106 183 1 6 9 -2 18 -19 9
-17 23 -29 30 -27z m37 3 c3 -5 1 -10 -4 -10 -6 0 -11 5 -11 10 0 6 2 10 4 10
3 0 8 -4 11 -10z m148 -69 c22 -45 21 -49 -3 -18 -11 14 -20 31 -20 37 0 9 -5
9 -17 -1 -16 -12 -17 -12 -5 2 7 9 9 25 6 35 -6 17 -5 17 8 -1 8 -11 22 -35
31 -54z m-59 -82 c-1 -8 -5 -23 -10 -33 -5 -14 -4 -17 5 -11 10 5 11 2 7 -13
-6 -17 -3 -19 14 -15 12 3 20 0 20 -7 0 -7 -7 -10 -16 -6 -12 5 -15 2 -10 -9
11 -29 -12 -5 -38 39 -30 52 -30 53 -12 53 8 0 12 -7 9 -16 -5 -13 -2 -13 13
2 17 15 17 19 4 28 -13 9 -13 10 0 6 8 -2 14 -10 14 -18z"/>
<path d="M6183 11713 c75 -2 199 -2 275 0 75 1 13 3 -138 3 -151 0 -213 -2
-137 -3z"/>
<path d="M5933 11703 c20 -2 54 -2 75 0 20 2 3 4 -38 4 -41 0 -58 -2 -37 -4z"/>
<path d="M6628 11703 c17 -2 47 -2 65 0 17 2 3 4 -33 4 -36 0 -50 -2 -32 -4z"/>
<path d="M5750 11689 c-28 -4 -11 -5 45 -2 50 3 92 7 94 9 7 6 -90 2 -139 -7z"/>
<path d="M6763 11693 c15 -2 39 -2 55 0 15 2 2 4 -28 4 -30 0 -43 -2 -27 -4z"/>
<path d="M6868 11683 c12 -2 30 -2 40 0 9 3 -1 5 -23 4 -22 0 -30 -2 -17 -4z"/>
<path d="M5643 11673 c9 -2 25 -2 35 0 9 3 1 5 -18 5 -19 0 -27 -2 -17 -5z"/>
<path d="M6953 11673 c9 -2 25 -2 35 0 9 3 1 5 -18 5 -19 0 -27 -2 -17 -5z"/>
<path d="M7030 11670 c-12 -8 -9 -10 13 -10 16 0 26 4 22 10 -8 12 -16 12 -35
0z"/>
<path d="M5493 11653 c9 -2 25 -2 35 0 9 3 1 5 -18 5 -19 0 -27 -2 -17 -5z"/>
<path d="M7103 11653 c9 -2 23 -2 30 0 6 3 -1 5 -18 5 -16 0 -22 -2 -12 -5z"/>
<path d="M5438 11643 c6 -2 18 -2 25 0 6 3 1 5 -13 5 -14 0 -19 -2 -12 -5z"/>
<path d="M7168 11643 c7 -3 16 -2 19 1 4 3 -2 6 -13 5 -11 0 -14 -3 -6 -6z"/>
<path d="M5388 11633 c7 -3 16 -2 19 1 4 3 -2 6 -13 5 -11 0 -14 -3 -6 -6z"/>
<path d="M5328 11623 c7 -3 16 -2 19 1 4 3 -2 6 -13 5 -11 0 -14 -3 -6 -6z"/>
<path d="M7278 11623 c7 -3 16 -2 19 1 4 3 -2 6 -13 5 -11 0 -14 -3 -6 -6z"/>
<path d="M5235 11610 c-25 -11 1 -11 35 0 20 6 21 8 5 8 -11 0 -29 -3 -40 -8z"/>
<path d="M7328 11613 c7 -3 16 -2 19 1 4 3 -2 6 -13 5 -11 0 -14 -3 -6 -6z"/>
<path d="M7368 11603 c7 -3 16 -2 19 1 4 3 -2 6 -13 5 -11 0 -14 -3 -6 -6z"/>
<path d="M5168 11593 c6 -2 18 -2 25 0 6 3 1 5 -13 5 -14 0 -19 -2 -12 -5z"/>
<path d="M7520 11570 c14 -4 34 -8 45 -8 l20 -1 -20 9 c-11 5 -31 8 -45 8
l-25 0 25 -8z"/>
<path d="M7598 11553 c7 -3 16 -2 19 1 4 3 -2 6 -13 5 -11 0 -14 -3 -6 -6z"/>
<path d="M7638 11543 c7 -3 16 -2 19 1 4 3 -2 6 -13 5 -11 0 -14 -3 -6 -6z"/>
<path d="M7678 11533 c7 -3 16 -2 19 1 4 3 -2 6 -13 5 -11 0 -14 -3 -6 -6z"/>
<path d="M7718 11523 c7 -3 16 -2 19 1 4 3 -2 6 -13 5 -11 0 -14 -3 -6 -6z"/>
<path d="M4838 11513 c7 -3 16 -2 19 1 4 3 -2 6 -13 5 -11 0 -14 -3 -6 -6z"/>
<path d="M7825 11490 c11 -5 27 -9 35 -9 9 0 8 4 -5 9 -11 5 -27 9 -35 9 -9 0
-8 -4 5 -9z"/>
<path d="M4698 11473 c7 -3 16 -2 19 1 4 3 -2 6 -13 5 -11 0 -14 -3 -6 -6z"/>
<path d="M8070 11410 c8 -5 22 -9 30 -9 10 0 8 3 -5 9 -27 12 -43 12 -25 0z"/>
<path d="M4440 11390 c-18 -12 -2 -12 25 0 13 6 15 9 5 9 -8 0 -22 -4 -30 -9z"/>
<path d="M8170 11376 c14 -9 32 -15 40 -15 13 0 13 1 0 8 -8 5 -26 12 -40 15
l-25 7 25 -15z"/>
<path d="M4355 11359 c-22 -10 -29 -16 -15 -13 38 10 87 32 70 32 -8 0 -33 -8
-55 -19z"/>
<path d="M6255 11330 c-4 -28 -4 -54 -1 -57 3 -4 6 0 7 8 0 8 4 6 10 -6 6 -13
7 0 3 40 -4 33 -8 61 -9 63 -2 2 -6 -20 -10 -48z"/>
<path d="M4270 11330 c-18 -12 -2 -12 25 0 13 6 15 9 5 9 -8 0 -22 -4 -30 -9z"/>
<path d="M8314 11319 c27 -11 50 -18 53 -16 5 6 -73 37 -90 36 -6 0 10 -9 37
-20z"/>
<path d="M4230 11310 c-9 -6 -10 -10 -3 -10 6 0 15 5 18 10 8 12 4 12 -15 0z"/>
<path d="M4095 11255 c-25 -12 -26 -14 -5 -9 14 4 29 10 35 15 12 12 5 11 -30
-6z"/>
<path d="M4003 11218 c-29 -11 -53 -24 -53 -29 0 -8 94 32 107 45 9 9 4 7 -54
-16z"/>
<path d="M8561 11216 c2 -2 15 -9 29 -15 24 -11 24 -11 6 3 -16 13 -49 24 -35
12z"/>
<path d="M3833 11165 c0 -8 4 -12 9 -9 5 3 6 10 3 15 -9 13 -12 11 -12 -6z"/>
<path d="M3910 11170 c-8 -5 -10 -10 -5 -10 6 0 17 5 25 10 8 5 11 10 5 10 -5
0 -17 -5 -25 -10z"/>
<path d="M3865 11150 c-3 -5 -2 -10 4 -10 5 0 13 5 16 10 3 6 2 10 -4 10 -5 0
-13 -4 -16 -10z"/>
<path d="M8780 11106 c0 -2 7 -7 16 -10 8 -3 12 -2 9 4 -6 10 -25 14 -25 6z"/>
<path d="M3725 11080 c-3 -6 1 -7 9 -4 18 7 21 14 7 14 -6 0 -13 -4 -16 -10z"/>
<path d="M3630 11029 c0 -5 5 -7 10 -4 6 3 10 8 10 11 0 2 -4 4 -10 4 -5 0
-10 -5 -10 -11z"/>
<path d="M3588 11008 c-16 -5 -28 -13 -28 -18 0 -5 14 -2 30 6 17 9 30 17 30
20 0 2 -1 4 -2 3 -2 0 -15 -5 -30 -11z"/>
<path d="M3500 10960 c-8 -5 -12 -12 -9 -15 4 -3 12 1 19 10 14 17 11 19 -10
5z"/>
<path d="M3369 10938 c-5 -18 -6 -38 -1 -34 7 8 12 36 6 36 -2 0 -4 -1 -5 -2z"/>
<path d="M3442 10920 c-37 -23 -46 -25 -36 -8 4 7 3 8 -5 4 -6 -4 -9 -12 -6
-17 4 -5 -3 -9 -15 -9 -12 0 -18 -4 -15 -10 6 -10 82 26 110 51 15 15 2 10
-33 -11z"/>
<path d="M9120 10920 c-9 -6 -10 -10 -3 -10 6 0 15 5 18 10 8 12 4 12 -15 0z"/>
<path d="M7560 10901 c-12 -24 -13 -34 -1 -27 9 6 22 46 15 46 -2 0 -8 -9 -14
-19z"/>
<path d="M9150 10890 c8 -5 22 -9 30 -9 10 0 8 3 -5 9 -27 12 -43 12 -25 0z"/>
<path d="M3314 10845 c-10 -8 -14 -15 -8 -15 6 0 17 7 24 15 16 19 9 19 -16 0z"/>
<path d="M9220 10846 c0 -2 12 -12 28 -21 l27 -18 -19 21 c-17 20 -36 29 -36
18z"/>
<path d="M5023 10787 c0 -8 6 -14 14 -14 9 0 10 4 2 14 -6 7 -12 13 -14 13 -1
0 -2 -6 -2 -13z"/>
<path d="M7512 10745 c-6 -14 -8 -25 -3 -25 8 0 23 41 17 47 -1 2 -8 -8 -14
-22z"/>
<path d="M3163 10754 c3 -4 -4 -15 -16 -26 l-22 -19 27 17 c24 14 30 34 11 34
-4 0 -4 -3 0 -6z"/>
<path d="M5050 10753 c0 -6 9 -21 21 -34 l20 -24 -17 30 c-24 39 -24 40 -24
28z"/>
<path d="M7455 10734 c-9 -15 -12 -23 -6 -20 11 7 35 46 28 46 -3 0 -12 -12
-22 -26z"/>
<path d="M5011 10720 c0 -8 4 -22 9 -30 12 -18 12 -2 0 25 -6 13 -9 15 -9 5z"/>
<path d="M7469 10713 c-13 -16 -12 -17 4 -4 16 13 21 21 13 21 -2 0 -10 -8
-17 -17z"/>
<path d="M3055 10670 c-3 -6 1 -7 9 -4 18 7 21 14 7 14 -6 0 -13 -4 -16 -10z"/>
<path d="M2839 10503 c-13 -16 -12 -17 4 -4 9 7 17 15 17 17 0 8 -8 3 -21 -13z"/>
<path d="M9854 10361 c20 -22 26 -25 26 -13 0 4 -10 13 -22 21 -23 14 -23 14
-4 -8z"/>
<path d="M2659 10353 c-13 -16 -12 -17 4 -4 9 7 17 15 17 17 0 8 -8 3 -21 -13z"/>
<path d="M8589 10283 c-13 -16 -12 -17 4 -4 16 13 21 21 13 21 -2 0 -10 -8
-17 -17z"/>
<path d="M9950 10276 c0 -2 8 -10 18 -17 15 -13 16 -12 3 4 -13 16 -21 21 -21
13z"/>
<path d="M8390 10135 c-7 -9 -11 -17 -9 -20 3 -2 10 5 17 15 14 24 10 26 -8 5z"/>
<path d="M8460 10115 c-7 -8 -16 -12 -21 -9 -5 3 -6 -2 -3 -11 4 -9 7 -15 8
-13 1 2 10 13 20 26 11 12 17 22 14 22 -3 0 -11 -7 -18 -15z"/>
<path d="M8340 10091 c0 -10 29 -36 34 -30 1 2 -6 12 -16 22 -10 9 -18 13 -18
8z"/>
<path d="M8295 10061 c-3 -5 -2 -12 3 -15 5 -3 9 1 9 9 0 17 -3 19 -12 6z"/>
<path d="M8401 10037 c-13 -21 -12 -21 5 -5 10 10 16 20 13 22 -3 3 -11 -5
-18 -17z"/>
<path d="M10202 10042 c-9 -6 -7 -13 10 -28 17 -14 19 -15 9 -2 -7 9 -10 22
-6 28 7 12 4 12 -13 2z"/>
<path d="M8229 10003 c-13 -16 -12 -17 4 -4 9 7 17 15 17 17 0 8 -8 3 -21 -13z"/>
<path d="M10260 9966 c0 -2 8 -10 18 -17 15 -13 16 -12 3 4 -13 16 -21 21 -21
13z"/>
<path d="M10340 9875 c13 -14 26 -25 28 -25 3 0 -5 11 -18 25 -13 14 -26 25
-28 25 -3 0 5 -11 18 -25z"/>
<path d="M10425 9780 c10 -11 20 -20 23 -20 3 0 -3 9 -13 20 -10 11 -20 20
-23 20 -3 0 3 -9 13 -20z"/>
<path d="M10465 9730 c10 -11 20 -20 23 -20 3 0 -3 9 -13 20 -10 11 -20 20
-23 20 -3 0 3 -9 13 -20z"/>
<path d="M10827 9230 c17 -30 33 -39 33 -20 0 6 -4 10 -9 10 -5 0 -11 9 -14
20 -3 11 -10 20 -17 20 -7 0 -5 -11 7 -30z"/>
<path d="M10950 9030 c6 -11 13 -20 16 -20 2 0 0 9 -6 20 -6 11 -13 20 -16 20
-2 0 0 -9 6 -20z"/>
<path d="M6138 9001 c-31 -10 -72 -28 -91 -40 -54 -33 -126 -116 -155 -179
-23 -50 -27 -69 -27 -162 0 -97 3 -110 32 -172 63 -134 187 -217 335 -226 123
-7 213 24 299 105 172 161 172 425 0 586 -26 25 -63 52 -80 62 -93 48 -213 58
-313 26z"/>
<path d="M11001 9004 c-1 -6 2 -13 5 -17 8 -8 34 3 34 15 0 6 -6 6 -14 -1 -11
-9 -15 -9 -19 1 -3 7 -6 8 -6 2z"/>
<path d="M10996 8955 c24 -39 24 -40 24 -28 0 6 -9 21 -21 34 l-20 24 17 -30z"/>
<path d="M11026 8897 c3 -10 9 -15 12 -12 3 3 0 11 -7 18 -10 9 -11 8 -5 -6z"/>
<path d="M11056 8847 c3 -10 9 -15 12 -12 3 3 0 11 -7 18 -10 9 -11 8 -5 -6z"/>
<path d="M11105 8810 c-6 -20 -7 -21 -21 -3 -13 16 -13 15 -2 -10 l12 -28 14
26 c7 15 11 29 9 32 -3 2 -8 -5 -12 -17z"/>
<path d="M7740 8793 c-14 -3 -70 -16 -125 -30 -543 -136 -1054 -554 -1336
-1093 -29 -55 -54 -99 -55 -97 -2 2 2 19 8 39 10 34 8 40 -53 144 -296 507
-794 889 -1322 1013 -138 33 -141 29 -38 -45 257 -184 499 -477 668 -808 134
-265 210 -485 358 -1046 122 -463 265 -859 314 -875 12 -3 21 -14 21 -22 0 -9
3 -14 6 -10 4 3 13 -1 22 -9 12 -13 17 -13 24 -2 6 9 7 5 3 -11 -5 -16 -4 -21
4 -17 6 4 20 9 31 12 11 2 29 6 41 9 15 3 19 0 15 -10 -3 -8 -1 -17 3 -20 20
-12 136 258 203 475 16 52 67 248 114 435 144 573 218 794 355 1066 196 389
431 661 769 891 25 17 19 19 -30 11z m-1387 -2838 c-7 -21 -12 -19 -10 4 0 11
5 18 9 15 4 -3 5 -11 1 -19z"/>
<path d="M11140 8688 c0 -11 30 -78 35 -78 3 0 -2 17 -10 37 -15 36 -25 52
-25 41z"/>
<path d="M11180 8595 c0 -5 5 -17 10 -25 5 -8 10 -10 10 -5 0 6 -5 17 -10 25
-5 8 -10 11 -10 5z"/>
<path d="M11226 8497 c3 -10 9 -15 12 -12 3 3 0 11 -7 18 -10 9 -11 8 -5 -6z"/>
<path d="M11240 8465 c0 -5 5 -17 10 -25 5 -8 10 -10 10 -5 0 6 -5 17 -10 25
-5 8 -10 11 -10 5z"/>
<path d="M11281 8365 c23 -66 63 -165 65 -162 6 6 -38 131 -54 152 -8 11 -12
15 -11 10z"/>
<path d="M11343 8305 c-6 -6 -8 -18 -3 -24 5 -9 9 -5 13 10 7 28 6 31 -10 14z"/>
<path d="M11476 8250 c7 -28 12 -35 18 -29 2 2 -2 15 -10 29 l-15 25 7 -25z"/>
<path d="M4702 8160 c-136 -28 -231 -141 -232 -275 0 -125 48 -211 148 -262
55 -28 74 -33 135 -33 169 0 287 121 287 294 0 174 -167 310 -338 276z"/>
<path d="M7691 8159 c-55 -11 -121 -49 -156 -91 -123 -145 -89 -350 73 -446
42 -24 57 -27 137 -27 103 0 144 16 209 82 134 135 94 367 -78 452 -70 34
-122 43 -185 30z"/>
<path d="M11371 8135 c1 -19 18 -51 18 -35 0 8 -4 22 -9 30 -5 8 -9 11 -9 5z"/>
<path d="M11392 8075 c0 -5 6 -26 13 -45 7 -19 14 -28 14 -20 0 8 -6 29 -14
45 -7 17 -13 26 -13 20z"/>
<path d="M11431 7944 c0 -11 3 -14 6 -6 3 7 2 16 -1 19 -3 4 -6 -2 -5 -13z"/>
<path d="M11504 7894 c-4 -15 -2 -30 5 -37 10 -9 11 -5 5 17 -5 21 -4 27 4 22
8 -5 10 -2 6 8 -8 22 -13 20 -20 -10z"/>
<path d="M11457 7870 c8 -47 41 -149 42 -130 0 8 -10 49 -24 90 -13 41 -22 59
-18 40z"/>
<path d="M11496 7802 c15 -59 21 -67 20 -25 0 25 -6 45 -13 48 -10 3 -11 -3
-7 -23z"/>
<path d="M5336 7779 c-76 -31 -205 -119 -285 -195 -89 -83 -175 -201 -232
-316 -24 -49 -46 -88 -49 -88 -3 0 -4 16 -2 35 3 28 -4 45 -41 97 -52 72 -160
179 -230 227 -91 62 -226 119 -336 141 -109 22 -193 20 -168 -3 31 -30 120
-92 128 -90 5 2 8 -3 6 -10 -1 -6 4 -11 10 -10 7 2 12 -1 10 -7 -2 -11 93
-130 105 -130 4 0 8 -4 8 -10 0 -5 21 -41 46 -80 111 -172 195 -432 229 -711
l6 -47 217 -52 c119 -29 239 -58 266 -66 67 -19 68 -19 49 21 -11 24 -20 32
-28 25 -6 -5 -29 -11 -50 -13 -22 -3 -31 -2 -20 0 29 7 68 40 55 48 -5 3 -10
21 -10 40 0 18 -5 35 -11 37 -17 6 -1 158 17 158 10 0 14 13 14 44 0 74 68
154 83 99 3 -10 5 14 6 54 4 248 88 524 230 756 22 37 37 67 33 66 -4 0 -29
-9 -56 -20z m-18 -91 c-6 -15 -14 -31 -20 -34 -5 -4 -5 3 2 16 6 12 9 27 7 34
-3 7 1 13 8 13 10 0 10 -7 3 -29z m-1172 -47 c0 -16 -3 -17 -14 -9 -12 10 -7
19 13 28 1 0 1 -9 1 -19z m1001 -393 c-3 -8 -6 -5 -6 6 -1 11 2 17 5 13 3 -3
4 -12 1 -19z m-20 -155 c-3 -10 -5 -4 -5 12 0 17 2 24 5 18 2 -7 2 -21 0 -30z
m-90 -609 c-3 -3 -12 -4 -19 -1 -8 3 -5 6 6 6 11 1 17 -2 13 -5z"/>
<path d="M7110 7796 c0 -6 62 -106 66 -106 1 0 0 8 -3 18 -3 13 2 18 18 19 42
3 43 21 3 41 -45 22 -84 36 -84 28z"/>
<path d="M11501 7704 c0 -11 3 -14 6 -6 3 7 2 16 -1 19 -3 4 -6 -2 -5 -13z"/>
<path d="M8364 7685 c-189 -34 -353 -122 -496 -265 -81 -82 -128 -148 -137
-192 -8 -38 -20 -26 -68 72 -24 47 -51 95 -60 105 -10 11 -31 39 -46 61 -44
65 -246 252 -235 217 6 -18 -28 -51 -52 -49 -18 1 -25 -5 -27 -19 l-3 -20 10
20 c8 16 9 13 4 -14 -5 -29 -4 -33 11 -28 13 6 15 3 10 -13 -4 -14 -2 -20 8
-20 21 0 44 -30 30 -38 -6 -4 -12 -16 -15 -27 -2 -14 -14 5 -36 57 -18 42 -32
81 -32 86 0 6 -7 13 -16 16 -8 3 -13 2 -11 -2 15 -24 64 -140 94 -217 18 -49
31 -78 28 -62 -8 39 4 77 21 70 9 -3 12 -13 9 -24 -5 -14 -2 -17 8 -13 23 9
57 -43 57 -87 0 -35 3 -39 25 -39 22 0 25 -4 25 -39 0 -24 9 -51 25 -75 14
-20 25 -42 25 -47 0 -6 9 -22 20 -36 11 -14 20 -33 20 -43 0 -10 8 -28 19 -41
10 -13 21 -42 24 -64 11 -73 13 -135 5 -135 -4 0 -8 -29 -8 -64 0 -36 -4 -68
-10 -71 -5 -3 -10 0 -10 7 0 7 -5 5 -11 -6 -9 -14 -8 -20 2 -26 10 -7 10 -11
0 -23 -10 -12 -10 -20 1 -38 10 -17 10 -23 1 -26 -19 -7 -16 -23 5 -23 11 -1
6 -6 -13 -15 -16 -7 -26 -14 -22 -14 7 -1 147 31 336 76 79 19 91 31 91 96 0
55 57 308 90 402 37 106 107 248 160 325 53 76 151 184 216 237 31 25 51 49
48 55 -4 7 -2 8 4 4 7 -4 17 -4 23 0 17 10 -10 24 -46 23 -16 0 -62 -7 -101
-14z m-935 -95 c10 -5 26 -22 36 -37 18 -27 18 -28 0 -13 -17 14 -18 13 -11
-5 6 -16 2 -15 -22 8 -16 15 -29 34 -29 42 0 18 3 18 26 5z m-79 -121 c0 -5
-4 -8 -9 -5 -5 4 -12 0 -14 -6 -3 -8 -6 -6 -6 5 -1 9 6 17 14 17 8 0 15 -5 15
-11z m230 -70 c0 -12 -7 -19 -20 -19 -17 0 -19 6 -17 40 2 40 2 41 20 19 9
-12 17 -30 17 -40z m58 -134 c-3 -3 -9 2 -12 12 -6 14 -5 15 5 6 7 -7 10 -15
7 -18z"/>
<path d="M11637 7686 c-4 -10 -5 -21 -2 -24 9 -9 17 6 13 25 -3 17 -4 17 -11
-1z"/>
<path d="M11511 7664 c0 -11 3 -14 6 -6 3 7 2 16 -1 19 -3 4 -6 -2 -5 -13z"/>
<path d="M11521 7624 c0 -11 3 -14 6 -6 3 7 2 16 -1 19 -3 4 -6 -2 -5 -13z"/>
<path d="M2950 7587 c0 -51 133 -715 175 -873 181 -685 628 -1189 1309 -1479
155 -65 311 -118 525 -176 705 -191 906 -274 1139 -468 35 -29 65 -51 67 -49
2 2 12 60 21 128 21 165 15 410 -15 563 -38 189 -107 357 -213 514 -74 110
-265 299 -345 342 -13 6 -23 9 -23 7 0 -3 14 -13 31 -21 30 -16 30 -17 13 -36
-9 -10 -22 -19 -27 -19 -6 0 -2 10 9 22 18 20 18 21 1 15 -11 -4 -16 -3 -12 3
4 6 -6 7 -25 4 -25 -6 -29 -4 -24 10 5 12 2 15 -12 9 -13 -5 -15 -3 -9 8 8 12
6 12 -8 1 -14 -12 -21 -11 -49 9 -46 33 -58 45 -50 54 4 4 -11 5 -33 1 -25 -4
-34 -3 -25 2 29 18 89 21 104 7 7 -8 16 -11 20 -8 3 4 -17 19 -46 35 -28 15
-53 26 -56 23 -2 -2 8 -10 24 -17 l28 -13 -39 -5 c-41 -6 -100 13 -90 29 2 5
-7 12 -20 15 -14 4 -23 11 -20 16 3 5 -1 7 -9 4 -24 -9 -40 6 -20 20 14 11 10
15 -34 34 -28 12 -58 19 -68 15 -11 -4 -15 -2 -11 4 4 7 -8 10 -33 9 -22 0
-45 5 -51 11 -9 9 -6 11 12 7 24 -5 24 -5 -1 6 -14 6 -137 40 -275 75 -310 79
-459 124 -600 182 -132 53 -294 148 -369 215 -51 45 -75 60 -61 39 7 -12 -4
-19 -38 -25 -15 -2 -31 -7 -36 -10 -5 -4 -13 3 -16 15 -4 11 -9 19 -11 16 -3
-2 0 -15 5 -28 6 -17 5 -28 -5 -37 -11 -10 -16 -6 -29 24 -18 44 -18 45 -3 41
7 -1 12 7 13 18 0 13 8 21 23 23 13 2 22 10 22 20 0 14 2 15 10 2 5 -8 12 -11
16 -7 5 4 -12 27 -35 50 -40 38 -42 39 -22 10 18 -27 20 -33 7 -33 -9 0 -16
-9 -16 -20 0 -15 -7 -20 -24 -20 -14 0 -26 6 -29 13 -2 6 -2 -1 1 -18 7 -47
85 -217 138 -303 63 -100 224 -261 334 -333 108 -71 233 -134 385 -193 251
-98 370 -151 478 -214 291 -168 507 -394 656 -689 39 -76 101 -242 101 -267 0
-6 -27 39 -59 101 -104 195 -212 344 -347 474 -192 185 -380 289 -807 446
-282 103 -461 204 -610 343 -99 92 -159 173 -213 285 -60 125 -82 221 -93 405
-11 175 -26 231 -91 327 -46 69 -135 161 -205 213 -89 66 -228 130 -281 130
-21 0 -24 -5 -24 -33z m2170 -1277 c0 -5 -8 -10 -17 -10 -15 0 -16 2 -3 10 19
12 20 12 20 0z m583 -303 c16 -10 26 -21 23 -24 -2 -3 -11 0 -18 6 -7 6 -24
20 -38 32 -28 23 -9 15 33 -14z m78 -74 c13 -16 12 -17 -3 -4 -10 7 -18 15
-18 17 0 8 8 3 21 -13z"/>
<path d="M9480 7597 c-105 -35 -207 -102 -300 -196 -142 -144 -185 -242 -195
-445 -12 -238 -48 -356 -161 -527 -55 -84 -209 -231 -311 -298 -113 -75 -272
-150 -478 -226 -334 -124 -474 -192 -633 -309 -91 -67 -215 -189 -288 -282
-81 -104 -193 -284 -229 -369 -16 -36 -30 -63 -32 -61 -2 2 3 30 13 62 94 323
331 636 640 843 128 87 282 162 511 250 306 118 464 208 616 351 84 79 135
142 203 251 43 69 75 144 52 121 -18 -18 -33 -15 -17 4 12 15 11 16 -7 10 -16
-5 -23 -2 -26 12 -4 14 -13 18 -40 16 -28 -2 -35 1 -34 14 0 9 -6 17 -14 16
-24 -2 -130 -85 -123 -97 3 -6 1 -7 -5 -3 -6 4 -46 -14 -89 -39 -161 -93 -349
-158 -765 -265 -288 -74 -356 -94 -342 -102 5 -3 3 -3 -5 -1 -25 6 -80 -17
-75 -31 3 -9 -7 -18 -27 -25 -44 -15 -50 -13 -16 5 42 23 26 28 -24 7 l-43
-17 34 -9 c19 -5 40 -13 45 -18 7 -7 1 -8 -17 -4 -24 6 -26 5 -21 -17 3 -17 2
-19 -5 -9 -8 12 -13 11 -32 -2 -15 -11 -18 -16 -8 -20 12 -5 8 -6 -42 -11 -8
0 -15 -8 -15 -16 0 -10 -13 -17 -37 -20 -24 -3 -44 -14 -58 -32 -12 -16 -30
-28 -41 -28 -11 0 -17 -4 -14 -10 8 -13 3 -13 -32 0 -24 9 -26 8 -11 -3 16
-13 16 -15 -5 -35 -14 -14 -37 -22 -58 -22 -19 0 -42 -7 -52 -15 -11 -7 -25
-11 -33 -8 -13 5 -12 9 2 32 l16 26 -23 -21 c-58 -50 -185 -183 -223 -234
-123 -162 -212 -371 -252 -595 -22 -124 -25 -437 -5 -567 7 -49 15 -88 18 -88
2 0 37 26 76 59 222 181 448 275 1057 440 342 93 535 162 745 266 321 158 554
341 758 595 244 301 381 623 476 1120 18 91 50 254 71 362 22 108 40 206 40
217 0 27 -26 27 -110 -2z m-730 -782 c-7 -8 -17 -15 -23 -15 -6 0 -2 7 9 15
25 19 30 19 14 0z m-1267 -492 c-7 -2 -19 -2 -25 0 -7 3 -2 5 12 5 14 0 19 -2
13 -5z"/>
<path d="M11531 7584 c0 -11 3 -14 6 -6 3 7 2 16 -1 19 -3 4 -6 -2 -5 -13z"/>
<path d="M11567 7561 c8 -36 10 -36 15 -3 3 19 0 29 -9 29 -8 0 -11 -9 -6 -26z"/>
<path d="M11541 7550 c0 -8 10 -64 23 -125 16 -74 26 -104 31 -92 4 10 2 29
-5 42 -7 13 -10 31 -6 40 3 9 2 14 -3 11 -5 -3 -11 17 -15 44 -7 51 -25 108
-25 80z"/>
<path d="M11693 7495 c0 -36 3 -52 7 -40 5 15 9 5 15 -35 4 -30 10 -50 12 -43
4 11 -7 72 -25 143 -8 32 -9 30 -9 -25z"/>
<path d="M11580 7498 c0 -19 2 -20 10 -8 13 19 13 30 0 30 -5 0 -10 -10 -10
-22z"/>
<path d="M11682 7410 c0 -14 2 -19 5 -12 2 6 2 18 0 25 -3 6 -5 1 -5 -13z"/>
<path d="M892 7360 c0 -14 2 -19 5 -12 2 6 2 18 0 25 -3 6 -5 1 -5 -13z"/>
<path d="M881 7314 c0 -11 3 -14 6 -6 3 7 2 16 -1 19 -3 4 -6 -2 -5 -13z"/>
<path d="M7331 7304 c0 -11 3 -14 6 -6 3 7 2 16 -1 19 -3 4 -6 -2 -5 -13z"/>
<path d="M11591 7294 c0 -11 3 -14 6 -6 3 7 2 16 -1 19 -3 4 -6 -2 -5 -13z"/>
<path d="M11660 7290 c0 -5 5 -10 11 -10 5 0 7 5 4 10 -3 6 -8 10 -11 10 -2 0
-4 -4 -4 -10z"/>
<path d="M7341 7264 c0 -11 3 -14 6 -6 3 7 2 16 -1 19 -3 4 -6 -2 -5 -13z"/>
<path d="M11667 7263 c-4 -3 -7 -14 -7 -24 0 -10 -6 -24 -14 -32 -15 -15 -11
-107 5 -107 5 0 9 -9 9 -19 0 -11 5 -23 11 -27 8 -4 9 3 5 22 -7 29 -7 29 39
26 30 -3 45 -9 45 -18 0 -8 4 -14 9 -14 5 0 12 -10 15 -22 2 -13 2 11 -1 52
-3 41 -9 76 -13 78 -4 1 -5 13 -3 25 2 12 -3 31 -11 42 -15 19 -15 18 -16 -22
0 -30 -4 -43 -14 -43 -8 0 -17 6 -19 13 -4 10 -6 10 -6 0 -1 -20 -21 -15 -22
5 0 12 -3 10 -10 -7 -7 -18 -6 -27 3 -32 7 -4 9 -11 5 -15 -4 -4 -12 -3 -18 3
-8 8 -7 26 4 64 16 53 17 65 4 52z"/>
<path d="M11600 7252 c0 -7 9 -69 20 -139 11 -71 27 -180 34 -243 l14 -115 0
95 c0 52 2 111 4 130 3 19 3 23 1 8 -7 -47 -26 -33 -20 14 4 27 2 37 -4 27 -6
-10 -9 -7 -9 13 0 32 -30 211 -36 217 -2 2 -4 -1 -4 -7z"/>
<path d="M11620 7244 c0 -8 5 -12 10 -9 6 3 10 10 10 16 0 5 -4 9 -10 9 -5 0
-10 -7 -10 -16z"/>
<path d="M7351 7214 c0 -11 3 -14 6 -6 3 7 2 16 -1 19 -3 4 -6 -2 -5 -13z"/>
<path d="M842 7080 c0 -14 2 -19 5 -12 2 6 2 18 0 25 -3 6 -5 1 -5 -13z"/>
<path d="M7373 7060 c0 -25 2 -35 4 -22 2 12 2 32 0 45 -2 12 -4 2 -4 -23z"/>
<path d="M3565 7070 c-4 -6 -4 -14 -1 -17 3 -4 6 0 6 8 1 10 5 8 15 -5 8 -11
15 -15 15 -9 0 18 -27 36 -35 23z"/>
<path d="M832 7000 c0 -19 2 -27 5 -17 2 9 2 25 0 35 -3 9 -5 1 -5 -18z"/>
<path d="M11791 6983 c0 -23 -7 -43 -13 -46 -10 -3 -10 -7 -1 -17 9 -10 13 -5
18 22 4 20 5 46 2 59 -3 15 -5 8 -6 -18z"/>
<path d="M3571 6954 c0 -11 3 -14 6 -6 3 7 2 16 -1 19 -3 4 -6 -2 -5 -13z"/>
<path d="M822 6920 c0 -14 2 -19 5 -12 2 6 2 18 0 25 -3 6 -5 1 -5 -13z"/>
<path d="M8856 6902 c-3 -5 1 -9 9 -9 8 0 12 4 9 9 -3 4 -7 8 -9 8 -2 0 -6 -4
-9 -8z"/>
<path d="M3690 6896 c0 -2 8 -10 18 -17 15 -13 16 -12 3 4 -13 16 -21 21 -21
13z"/>
<path d="M8922 6847 c-12 -29 -22 -57 -22 -62 1 -6 12 16 26 49 14 32 23 60
21 62 -2 2 -13 -20 -25 -49z"/>
<path d="M11793 6857 c-15 -57 -16 -77 -3 -77 11 0 23 57 18 96 -3 26 -4 24
-15 -19z"/>
<path d="M8901 6873 c-8 -15 -11 -15 -27 -3 -16 13 -16 12 1 -12 18 -24 21
-25 33 -11 12 16 17 43 7 43 -2 0 -8 -8 -14 -17z"/>
<path d="M8769 6863 c-13 -16 -12 -17 4 -4 9 7 17 15 17 17 0 8 -8 3 -21 -13z"/>
<path d="M813 6795 c0 -22 2 -30 4 -17 2 12 2 30 0 40 -3 9 -5 -1 -4 -23z"/>
<path d="M11763 6740 c0 -25 2 -35 4 -22 2 12 2 32 0 45 -2 12 -4 2 -4 -23z"/>
<path d="M803 6680 c0 -41 2 -58 4 -37 2 20 2 54 0 75 -2 20 -4 3 -4 -38z"/>
<path d="M11673 6670 c0 -41 2 -58 4 -37 2 20 2 54 0 75 -2 20 -4 3 -4 -38z"/>
<path d="M5161 6684 c0 -11 3 -14 6 -6 3 7 2 16 -1 19 -3 4 -6 -2 -5 -13z"/>
<path d="M5032 6588 c6 -18 28 -21 28 -4 0 9 -7 16 -16 16 -9 0 -14 -5 -12
-12z"/>
<path d="M11684 6300 c0 -135 2 -190 3 -122 2 67 2 177 0 245 -1 67 -3 12 -3
-123z"/>
<path d="M7495 6492 c-16 -9 -36 -23 -43 -30 -12 -11 -10 -12 14 -6 16 4 32
11 35 17 4 5 12 6 19 2 9 -6 11 -4 5 5 -4 7 -2 16 6 21 26 16 -6 9 -36 -9z"/>
<path d="M723 6340 c0 -25 2 -35 4 -22 2 12 2 32 0 45 -2 12 -4 2 -4 -23z"/>
<path d="M5308 6253 c6 -2 10 -9 6 -14 -3 -5 -2 -9 3 -10 34 -3 63 -4 63 -2 0
4 -71 33 -79 32 -3 0 0 -3 7 -6z"/>
<path d="M7180 6240 c-11 -8 -7 -9 15 -4 37 8 45 14 19 14 -10 0 -26 -5 -34
-10z"/>
<path d="M7097 6189 c7 -7 15 -10 18 -7 3 3 -2 9 -12 12 -14 6 -15 5 -6 -5z"/>
<path d="M5450 6150 c0 -5 5 -10 11 -10 5 0 7 5 4 10 -3 6 -8 10 -11 10 -2 0
-4 -4 -4 -10z"/>
<path d="M6855 6010 c3 -5 8 -10 11 -10 2 0 4 5 4 10 0 6 -5 10 -11 10 -5 0
-7 -4 -4 -10z"/>
<path d="M11672 5920 c0 -14 2 -19 5 -12 2 6 2 18 0 25 -3 6 -5 1 -5 -13z"/>
<path d="M11662 5800 c0 -19 2 -27 5 -17 2 9 2 25 0 35 -3 9 -5 1 -5 -18z"/>
<path d="M11653 5700 c0 -25 2 -35 4 -22 2 12 2 32 0 45 -2 12 -4 2 -4 -23z"/>
<path d="M11641 5604 c0 -11 3 -14 6 -6 3 7 2 16 -1 19 -3 4 -6 -2 -5 -13z"/>
<path d="M11631 5544 c0 -11 3 -14 6 -6 3 7 2 16 -1 19 -3 4 -6 -2 -5 -13z"/>
<path d="M11622 5480 c0 -14 2 -19 5 -12 2 6 2 18 0 25 -3 6 -5 1 -5 -13z"/>
<path d="M11601 5354 c0 -11 3 -14 6 -6 3 7 2 16 -1 19 -3 4 -6 -2 -5 -13z"/>
<path d="M11591 5294 c0 -11 3 -14 6 -6 3 7 2 16 -1 19 -3 4 -6 -2 -5 -13z"/>
<path d="M11501 4894 c0 -11 3 -14 6 -6 3 7 2 16 -1 19 -3 4 -6 -2 -5 -13z"/>
<path d="M4330 4557 c-29 -15 -28 -27 6 -105 19 -44 27 -53 41 -47 10 4 34 9
53 12 48 7 94 -32 131 -112 l29 -60 -245 -5 c-135 -3 -246 -7 -247 -10 -1 -3
3 -31 11 -62 l12 -58 69 0 c79 0 85 -5 96 -87 6 -50 -9 -123 -25 -123 -4 0
-22 7 -39 16 -25 12 -36 13 -54 3 -32 -17 -38 -28 -38 -74 0 -71 73 -199 193
-342 38 -46 75 -83 81 -83 14 0 56 41 56 54 0 5 -27 37 -59 72 -33 34 -73 83
-90 107 l-31 45 28 17 c15 9 39 31 54 49 l26 31 24 -22 c32 -31 75 -44 113
-37 33 6 34 5 40 -38 3 -23 4 -80 2 -125 l-4 -81 63 -40 c34 -22 65 -38 68
-34 3 3 6 160 6 349 l0 343 190 0 190 0 0 -71 0 -71 -30 26 c-99 83 -259 9
-280 -129 -27 -177 118 -324 268 -272 l42 15 0 -59 0 -59 63 -41 62 -40 3 350
2 351 50 0 50 0 0 -310 0 -310 55 -35 c30 -19 59 -35 65 -35 7 0 10 111 10
345 l0 345 30 0 c24 0 30 -4 30 -22 0 -45 43 -102 93 -127 63 -31 79 -18 47
36 -33 55 -41 90 -28 119 11 23 51 34 61 17 3 -5 2 -64 -2 -133 l-6 -125 -44
-6 c-74 -10 -92 -66 -48 -150 27 -50 98 -109 131 -109 40 0 74 36 82 85 l6 45
69 0 69 0 0 -127 0 -128 57 -37 c31 -20 61 -35 65 -32 4 3 8 160 8 350 l0 344
50 0 50 0 0 -312 1 -313 59 -37 c32 -20 61 -34 64 -30 3 3 6 160 6 349 l0 343
190 0 190 0 0 -70 0 -71 -22 20 c-52 49 -143 51 -209 5 -140 -96 -97 -345 70
-402 45 -16 84 -15 126 2 l35 15 0 -59 0 -58 63 -40 c34 -22 65 -38 70 -35 4
2 7 159 7 349 l0 344 55 0 55 0 0 -312 0 -313 56 -32 c31 -18 60 -33 65 -33 5
0 9 142 9 345 l0 345 45 0 c51 0 54 7 33 85 -12 43 -14 45 -49 45 -35 0 -37 2
-44 38 -17 97 -89 201 -160 233 -49 22 -116 24 -154 4 -86 -44 -110 -141 -64
-261 4 -12 -53 -14 -411 -14 -357 0 -416 -2 -416 -15 0 -7 5 -36 11 -64 10
-48 12 -50 47 -53 l37 -3 0 -115 0 -115 -62 -3 -63 -3 0 104 c0 126 -16 179
-70 232 l-39 38 -504 -2 -504 -2 -17 48 c-40 108 -132 240 -187 269 -35 17
-115 18 -149 1z m2555 -181 c22 -22 45 -81 45 -118 0 -16 -10 -18 -79 -18 -45
0 -83 5 -86 11 -4 5 -7 30 -7 55 -2 82 73 124 127 70z m-2321 -306 c3 -22 3
-71 0 -110 l-7 -70 -37 -11 c-21 -7 -54 -9 -73 -5 l-34 6 5 49 c4 44 -7 120
-23 164 -6 15 1 17 78 17 l84 0 7 -40z m481 -184 c31 -13 35 -19 35 -50 0 -57
-84 -136 -145 -136 -25 0 -55 38 -55 70 0 48 25 86 72 109 51 25 49 25 93 7z
m1590 0 c32 -14 35 -19 35 -54 0 -34 -6 -45 -45 -81 -75 -69 -155 -58 -155 21
0 47 28 88 73 109 51 23 49 22 92 5z"/>
<path d="M9988 4557 c-122 -35 -176 -140 -144 -279 l8 -38 -237 0 c-222 0
-237 -1 -230 -17 3 -10 11 -39 16 -65 l11 -48 88 0 88 0 12 -36 c16 -47 8
-150 -12 -170 -13 -14 -19 -13 -50 6 -28 16 -41 18 -61 11 -33 -13 -40 -26
-39 -77 1 -77 85 -227 206 -367 l58 -69 29 28 c16 15 29 32 29 36 0 5 -33 48
-74 96 -65 77 -96 121 -96 135 0 3 13 10 30 17 47 20 97 83 116 146 18 63 15
132 -11 203 l-14 42 67 -3 67 -3 2 -308 1 -309 54 -34 c29 -18 59 -34 66 -34
9 0 12 76 12 345 l0 345 253 -2 252 -3 0 -55 0 -55 -146 -3 c-146 -3 -147 -3
-142 -25 20 -87 24 -97 43 -97 40 0 72 -89 51 -143 -6 -15 -22 -33 -36 -39
-59 -27 -129 52 -156 175 -13 61 -14 62 -53 47 -30 -11 -32 -24 -11 -105 43
-166 128 -265 226 -265 127 0 198 140 134 266 -14 27 -25 50 -25 52 0 2 26 2
58 0 l57 -3 3 -185 3 -185 53 -32 c30 -18 59 -33 65 -33 8 0 11 101 11 345 l0
345 50 0 c57 0 59 4 36 80 -12 43 -15 45 -52 48 -36 3 -42 8 -64 48 -89 169
-426 320 -602 271z m257 -149 c92 -23 265 -126 265 -158 0 -7 -95 -9 -267 -8
l-268 3 -9 26 c-20 58 28 132 97 147 45 11 117 6 182 -10z"/>
<path d="M7728 4458 l-46 -53 41 -48 c22 -27 47 -51 55 -54 13 -6 112 82 112
100 0 13 -92 107 -105 107 -6 0 -32 -24 -57 -52z"/>
<path d="M11331 4374 c0 -11 3 -14 6 -6 3 7 2 16 -1 19 -3 4 -6 -2 -5 -13z"/>
<path d="M11315 4339 c-4 -6 -5 -12 -2 -15 2 -3 7 2 10 11 7 17 1 20 -8 4z"/>
<path d="M3190 4250 c-20 -5 -49 -24 -67 -44 -36 -39 -45 -34 -12 8 l20 26
-485 0 -486 0 6 -27 c23 -104 23 -103 59 -103 l35 0 0 -110 c0 -109 0 -111
-26 -120 -33 -13 -96 -13 -130 0 l-27 11 20 22 c55 60 62 148 18 223 -40 68
-103 104 -179 104 -68 0 -128 -23 -164 -62 l-23 -25 32 -54 c17 -30 33 -56 35
-58 2 -3 17 7 32 21 65 61 140 76 168 33 33 -50 -17 -116 -109 -142 -65 -18
-66 -23 -29 -102 14 -30 22 -35 42 -32 14 3 41 5 60 5 32 1 36 -2 48 -38 25
-77 -23 -146 -103 -146 -61 0 -104 33 -141 108 -18 35 -34 66 -38 69 -9 9 -66
-18 -66 -32 0 -7 18 -49 40 -93 64 -127 150 -192 254 -192 108 0 198 109 183
222 -5 34 -3 37 13 28 10 -6 35 -10 54 -10 l36 0 0 -124 0 -124 57 -36 c32
-20 63 -36 70 -36 11 0 13 63 12 318 -1 174 -1 329 0 345 1 26 3 27 51 27 l50
0 0 -310 0 -309 52 -36 c29 -19 58 -35 65 -35 10 0 13 74 13 345 l0 345 100 0
c99 0 101 0 110 -26 14 -36 12 -147 -3 -167 -11 -16 -15 -17 -44 -2 -22 11
-38 13 -56 6 -51 -20 -50 -85 2 -189 60 -120 209 -312 242 -312 8 0 25 14 38
30 l22 31 -78 83 c-43 45 -85 95 -93 110 -13 26 -13 29 5 39 11 6 34 26 51 45
22 23 34 30 39 22 14 -22 95 -52 124 -45 24 5 32 0 57 -32 90 -119 207 -153
323 -93 l41 20 0 -70 0 -70 55 -35 c30 -19 59 -35 65 -35 7 0 10 111 10 345
l0 345 55 0 55 0 0 -310 0 -309 55 -36 c31 -19 60 -35 65 -35 6 0 11 130 12
343 l3 342 43 3 c48 4 50 10 28 82 l-13 45 -257 3 c-183 2 -256 -1 -256 -9 0
-6 7 -35 16 -65 13 -46 19 -54 40 -54 l24 0 0 -135 0 -135 -36 -39 c-66 -74
-162 -101 -225 -64 -35 21 -37 39 -6 49 40 12 107 67 136 111 44 66 56 130 37
195 -33 115 -128 181 -226 158z m101 -121 c17 -17 20 -28 14 -57 -7 -39 -41
-102 -55 -102 -16 0 -50 68 -50 99 0 21 9 41 25 56 30 30 39 31 66 4z m-206
-53 c9 -45 57 -102 100 -116 19 -6 35 -15 35 -19 0 -14 -114 -62 -160 -68 -72
-8 -84 3 -81 78 1 38 -4 82 -13 108 -9 24 -16 45 -16 47 0 2 29 4 65 4 l64 0
6 -34z"/>
<path d="M8492 4249 c-41 -8 -66 -30 -91 -83 -12 -22 -21 -34 -21 -26 0 8 11
34 25 58 l24 42 -573 0 c-315 0 -575 -2 -578 -5 -3 -3 1 -33 9 -65 l15 -60 74
0 c84 0 91 -6 101 -89 5 -47 -11 -121 -26 -121 -4 0 -23 7 -41 17 -29 14 -36
14 -59 2 -57 -32 -49 -106 27 -234 41 -70 146 -207 190 -248 l30 -29 28 37 27
36 -55 57 c-31 31 -72 79 -93 106 l-37 50 29 20 c15 12 41 34 57 51 19 20 30
26 33 17 3 -7 23 -22 45 -33 32 -16 51 -19 84 -14 l44 6 0 -126 0 -125 55 -35
c30 -19 59 -35 65 -35 7 0 10 111 10 345 l0 345 109 0 109 0 11 -31 c15 -43
14 -141 -2 -163 -11 -16 -15 -16 -50 -1 -38 16 -71 9 -89 -19 -41 -61 55 -252
213 -421 60 -64 62 -65 81 -48 46 41 44 51 -19 117 -33 33 -77 82 -97 108
l-37 47 28 14 c15 9 41 29 57 46 l29 30 29 -24 c32 -27 83 -40 125 -31 25 6
32 0 69 -47 76 -98 196 -130 307 -80 l47 22 0 -72 0 -73 53 -32 c29 -18 58
-32 65 -32 9 0 12 83 12 345 l0 345 50 0 50 0 0 -313 0 -312 54 -33 c30 -17
59 -32 65 -32 8 0 11 102 11 345 l0 345 45 0 c50 0 51 1 32 75 l-13 50 -252 3
c-198 2 -252 0 -252 -10 0 -7 6 -35 13 -63 11 -43 17 -50 40 -53 l27 -3 0
-135 0 -134 -37 -42 c-68 -74 -164 -99 -230 -58 -18 11 -33 23 -33 27 0 5 23
19 50 32 73 34 145 117 159 180 33 154 -89 299 -227 270z m102 -115 c9 -8 16
-27 16 -42 0 -29 -32 -106 -48 -116 -19 -12 -45 34 -50 88 -4 47 -2 55 19 70
29 20 43 20 63 0z m-834 -130 l0 -105 -36 -15 c-20 -8 -55 -14 -77 -12 l-42 3
3 48 c1 27 -5 78 -13 114 -8 35 -15 66 -15 69 0 2 41 4 90 4 l90 0 0 -106z
m630 79 c0 -42 40 -91 94 -117 l50 -24 -34 -17 c-86 -45 -195 -67 -226 -47 -6
4 -14 47 -17 97 -3 50 -8 100 -12 113 -7 21 -6 22 69 22 76 0 76 0 76 -27z"/>
<path d="M11246 4175 c-9 -26 -7 -32 5 -12 6 10 9 21 6 23 -2 3 -7 -2 -11 -11z"/>
<path d="M10726 3634 c-37 -37 -35 -86 3 -125 47 -47 104 -33 131 31 10 24 10
36 0 60 -26 63 -89 79 -134 34z"/>
<path d="M10986 3643 c-6 -14 -5 -15 5 -6 7 7 10 15 7 18 -3 3 -9 -2 -12 -12z"/>
<path d="M10951 3587 c-13 -21 -12 -21 5 -5 10 10 16 20 13 22 -3 3 -11 -5
-18 -17z"/>
<path d="M10927 3547 c-3 -8 1 -14 9 -14 16 0 19 13 5 21 -5 3 -11 0 -14 -7z"/>
<path d="M10880 3469 c0 -5 5 -7 10 -4 6 3 10 8 10 11 0 2 -4 4 -10 4 -5 0
-10 -5 -10 -11z"/>
<path d="M10855 3429 c-4 -6 -5 -12 -2 -15 2 -3 7 2 10 11 7 17 1 20 -8 4z"/>
<path d="M10689 3183 c-13 -16 -12 -17 4 -4 16 13 21 21 13 21 -2 0 -10 -8
-17 -17z"/>
<path d="M1763 3143 c0 -18 4 -30 9 -27 4 3 8 -1 9 -8 1 -7 4 -2 9 12 l7 25
11 -25 c6 -14 11 -18 11 -10 0 8 -6 24 -14 34 -8 11 -15 14 -15 8 0 -19 -18
-14 -23 6 -2 9 -4 3 -4 -15z"/>
<path d="M1714 3069 c11 -14 27 -24 34 -21 18 6 15 23 -4 20 -23 -4 -29 19 -7
25 10 2 4 4 -13 3 l-31 -1 21 -26z"/>
<path d="M1880 3069 c0 -5 -4 -8 -8 -5 -5 3 -8 -5 -7 -17 1 -13 9 -23 21 -25
15 -3 17 -1 7 9 -18 19 -16 29 5 22 15 -6 15 -5 3 10 -16 20 -21 21 -21 6z"/>
<path d="M6680 3060 c-40 -4 -45 -8 -45 -30 l0 -25 1460 2 c1467 3 1965 9
1965 23 0 4 -136 11 -302 15 -382 9 -3017 22 -3078 15z"/>
<path d="M3268 3050 c-427 -3 -780 -8 -784 -12 -4 -5 -5 -11 -1 -14 3 -3 765
-10 1692 -16 1502 -9 1689 -8 1703 5 8 9 12 23 9 31 -6 14 -96 16 -924 14
-505 -1 -1268 -5 -1695 -8z"/>
<path d="M1910 3036 c0 -2 8 -10 18 -17 15 -13 16 -12 3 4 -13 16 -21 21 -21
13z"/>
<path d="M1927 2993 c-4 -3 -7 -11 -7 -17 0 -6 4 -4 10 4 7 12 12 11 32 -5
l23 -20 -19 23 c-20 23 -28 26 -39 15z"/>
<path d="M6416 2985 c-9 -26 -7 -32 5 -12 6 10 9 21 6 23 -2 3 -7 -2 -11 -11z"/>
<path d="M1935 2960 c-3 -5 -1 -10 4 -10 6 0 11 5 11 10 0 6 -2 10 -4 10 -3 0
-8 -4 -11 -10z"/>
<path d="M2016 2891 c-4 -6 -4 -11 1 -10 20 3 27 -2 13 -11 -13 -8 -12 -10 2
-10 12 0 17 -7 15 -21 -1 -12 4 -23 11 -25 7 -1 8 0 2 3 -5 2 -10 9 -10 14 0
6 10 5 23 -2 21 -11 21 -11 4 7 -9 11 -25 30 -36 43 -12 17 -20 21 -25 12z"/>
<path d="M2075 2791 c-3 -5 -2 -12 3 -15 5 -3 9 1 9 9 0 17 -3 19 -12 6z"/>
<path d="M2110 2746 c0 -2 8 -10 18 -17 15 -13 16 -12 3 4 -13 16 -21 21 -21
13z"/>
<path d="M2173 2712 c10 -10 14 -22 10 -27 -5 -4 -2 -5 5 -1 11 6 10 12 -4 27
-9 10 -19 19 -22 19 -3 0 2 -8 11 -18z"/>
<path d="M4080 2650 c-50 -12 -84 -54 -77 -97 l6 -33 -135 0 c-135 0 -135 0
-132 -22 3 -20 10 -23 53 -26 61 -4 75 -15 75 -57 0 -42 -21 -61 -48 -44 -28
18 -52 5 -52 -29 0 -21 18 -50 66 -105 68 -79 82 -88 104 -62 11 14 6 23 -35
65 -47 48 -48 50 -30 65 11 8 23 15 26 15 16 0 31 64 26 105 l-7 45 44 0 43 0
7 -79 c4 -44 4 -95 1 -115 -4 -20 -4 -52 -1 -71 6 -29 11 -35 31 -35 l24 0 3
148 3 147 155 0 155 0 0 -25 c0 -24 -2 -25 -77 -28 -75 -3 -78 -4 -78 -27 0
-15 6 -25 15 -25 32 0 48 -77 20 -100 -24 -20 -63 3 -81 48 -29 72 -27 70 -52
61 l-22 -8 20 -53 c34 -91 96 -128 163 -97 43 20 55 61 36 128 -3 10 5 14 26
15 28 1 30 -1 31 -39 3 -152 2 -145 29 -145 29 0 30 5 30 185 l0 110 28 3 c23
3 28 8 25 25 -2 17 -12 23 -38 27 -19 3 -55 19 -80 36 -63 44 -127 75 -185 90
-56 15 -65 16 -115 4z m217 -92 l68 -33 -144 -3 c-109 -2 -146 1 -153 10 -12
19 -10 26 13 49 19 19 29 21 85 16 41 -4 86 -17 131 -39z"/>
<path d="M2270 2608 c24 -27 45 -48 47 -48 8 0 0 9 -44 50 l-48 45 45 -47z"/>
<path d="M4972 2618 c-17 -17 -15 -32 9 -54 21 -19 21 -18 40 5 14 17 16 27 9
42 -12 21 -40 25 -58 7z"/>
<path d="M5745 2528 c-30 -83 -93 -260 -115 -325 l-29 -83 30 0 c16 0 29 4 29
10 0 5 29 90 64 187 87 243 82 223 51 223 -14 0 -28 -6 -30 -12z"/>
<path d="M7376 2532 c-13 -21 -146 -388 -146 -403 0 -5 11 -9 23 -9 22 0 30
16 90 183 84 232 85 237 59 237 -12 0 -23 -4 -26 -8z"/>
<path d="M7757 2534 c-4 -4 -7 -88 -7 -186 l0 -178 29 0 c36 0 41 12 41 109 0
85 8 101 52 101 38 0 48 -29 48 -131 l0 -80 28 3 c27 3 27 4 30 80 4 108 -10
156 -52 173 -33 14 -70 11 -93 -8 -10 -7 -13 2 -15 39 0 27 -1 56 -2 64 -1 16
-46 26 -59 14z"/>
<path d="M4760 2495 c0 -24 1 -24 108 -27 l107 -3 1 -30 c0 -16 -1 -35 -3 -40
-2 -6 -40 -12 -86 -13 -85 -3 -107 -14 -107 -53 0 -31 40 -70 69 -67 21 2 27
9 29 36 3 31 4 32 53 32 l49 0 0 -80 0 -80 31 0 31 0 -2 68 c-2 37 -2 104 -1
150 1 80 1 82 26 82 20 0 25 5 25 25 l0 25 -165 0 -165 0 0 -25z"/>
<path d="M5370 2345 l0 -175 30 0 c29 0 29 0 32 68 l3 67 68 3 c68 3 68 3 65
30 -3 26 -6 27 -65 30 l-63 3 0 49 0 50 75 0 c73 0 75 1 75 25 l0 25 -110 0
-110 0 0 -175z"/>
<path d="M5876 2404 c-98 -150 -98 -158 7 -162 l77 -3 0 -34 c0 -32 2 -35 30
-35 27 0 30 3 30 34 0 25 5 35 20 39 27 7 27 47 0 54 -17 5 -20 15 -22 112
l-3 106 -31 3 c-29 3 -35 -3 -108 -114z m81 -101 c-7 -7 -66 -7 -73 0 -3 3 11
34 32 69 l39 63 3 -64 c2 -35 1 -65 -1 -68z"/>
<path d="M6153 2500 c-57 -34 -79 -158 -47 -254 21 -62 61 -89 122 -83 79 8
112 62 112 182 0 86 -16 133 -53 158 -35 23 -95 21 -134 -3z m103 -51 c14 -15
20 -40 22 -92 4 -85 -8 -123 -44 -139 -24 -11 -29 -10 -50 15 -21 24 -24 39
-24 103 0 94 18 133 61 134 9 0 24 -9 35 -21z"/>
<path d="M6428 2504 c-31 -16 -36 -35 -14 -53 12 -10 20 -9 40 4 31 21 65 16
81 -10 22 -33 2 -64 -45 -71 -34 -6 -40 -10 -40 -30 0 -20 5 -24 31 -24 57 0
89 -33 68 -71 -17 -33 -54 -41 -100 -22 -35 13 -42 14 -50 2 -16 -26 -9 -40
28 -56 59 -24 130 -13 165 26 37 41 38 92 2 128 -24 24 -25 26 -7 45 29 32 24
95 -10 124 -33 28 -105 32 -149 8z"/>
<path d="M6710 2503 c-36 -24 -41 -35 -24 -54 15 -16 18 -16 50 3 64 38 113
-3 84 -71 -6 -16 -43 -61 -81 -100 -38 -40 -69 -81 -69 -91 0 -19 7 -20 115
-20 l115 0 0 25 c0 24 -2 25 -72 25 l-72 0 45 48 c75 78 89 101 89 148 0 23
-3 50 -6 59 -17 42 -127 60 -174 28z"/>
<path d="M7016 2404 c-48 -73 -76 -124 -74 -138 3 -19 10 -21 81 -24 l77 -3 0
-34 c0 -32 2 -35 30 -35 27 0 30 3 30 34 0 25 5 35 20 39 26 7 26 43 0 50 -17
4 -20 15 -22 113 l-3 109 -31 3 c-30 3 -35 -2 -108 -114z m81 -98 c-4 -9 -37
-12 -77 -7 -5 0 10 31 33 68 l42 68 3 -59 c2 -32 1 -64 -1 -70z"/>
<path d="M7452 2493 c3 -26 6 -28 48 -28 l45 0 3 -147 3 -148 29 0 c28 0 30 2
31 43 1 23 4 89 8 147 l6 105 45 0 c42 0 45 2 48 28 l3 27 -136 0 -136 0 3
-27z"/>
<path d="M8395 2433 c-11 -3 -26 -10 -34 -17 -11 -8 -15 -8 -18 2 -3 6 -16 12
-29 12 l-24 0 0 -130 0 -130 30 0 30 0 0 93 c0 101 7 117 52 117 38 0 48 -25
48 -124 l0 -86 30 0 30 0 0 84 c0 46 -3 98 -6 115 -9 45 -61 75 -109 64z"/>
<path d="M8058 2419 c-19 -10 -24 -44 -9 -53 5 -3 23 2 41 10 38 19 80 6 80
-24 0 -16 -10 -21 -51 -26 -92 -12 -130 -86 -73 -143 22 -22 31 -25 67 -18 23
4 59 6 80 6 l37 -1 0 105 c0 99 -2 107 -25 130 -20 20 -34 25 -77 25 -29 0
-61 -5 -70 -11z m112 -159 c0 -34 -29 -55 -66 -46 -42 11 -28 57 21 69 40 10
45 7 45 -23z"/>
<path d="M8597 2410 c-58 -46 -62 -160 -8 -214 27 -27 38 -31 85 -31 39 0 60
5 75 19 19 17 20 21 7 35 -12 12 -20 12 -41 3 -40 -18 -62 -14 -84 14 -12 15
-21 31 -21 35 0 5 38 9 85 9 l85 0 0 29 c0 40 -14 75 -41 100 -31 28 -106 29
-142 1z m103 -40 c32 -32 24 -40 -35 -40 -52 0 -55 1 -45 20 10 18 37 39 53
40 4 0 16 -9 27 -20z"/>
<path d="M2470 2396 c0 -2 8 -10 18 -17 15 -13 16 -12 3 4 -13 16 -21 21 -21
13z"/>
<path d="M2551 2317 c2 -1 13 -9 24 -17 19 -14 19 -14 6 3 -7 9 -18 17 -24 17
-6 0 -8 -1 -6 -3z"/>
<path d="M4532 2228 c-28 -28 -1 -75 37 -63 25 8 34 31 21 56 -12 21 -40 25
-58 7z"/>
<path d="M5116 2224 c-9 -8 -16 -19 -16 -24 0 -9 28 -40 36 -40 17 0 44 23 44
38 0 38 -37 53 -64 26z"/>
<path d="M2731 2157 c2 -1 13 -9 24 -17 19 -14 19 -14 6 3 -7 9 -18 17 -24 17
-6 0 -8 -1 -6 -3z"/>
<path d="M2810 2096 c0 -2 8 -10 18 -17 15 -13 16 -12 3 4 -13 16 -21 21 -21
13z"/>
<path d="M2910 2016 c0 -2 8 -10 18 -17 15 -13 16 -12 3 4 -13 16 -21 21 -21
13z"/>
<path d="M4277 1229 c7 -7 15 -10 18 -7 3 3 -2 9 -12 12 -14 6 -15 5 -6 -5z"/>
<path d="M4650 1100 c8 -5 22 -9 30 -9 10 0 8 3 -5 9 -27 12 -43 12 -25 0z"/>
<path d="M4740 1076 c0 -6 111 -38 116 -33 2 2 -15 9 -38 16 -24 7 -51 15 -60
17 -10 3 -18 3 -18 0z"/>
<path d="M4888 1033 c7 -3 16 -2 19 1 4 3 -2 6 -13 5 -11 0 -14 -3 -6 -6z"/>
<path d="M4968 1013 c7 -3 16 -2 19 1 4 3 -2 6 -13 5 -11 0 -14 -3 -6 -6z"/>
<path d="M5018 1003 c7 -3 16 -2 19 1 4 3 -2 6 -13 5 -11 0 -14 -3 -6 -6z"/>
<path d="M5098 983 c7 -3 16 -2 19 1 4 3 -2 6 -13 5 -11 0 -14 -3 -6 -6z"/>
<path d="M5148 973 c6 -2 18 -2 25 0 6 3 1 5 -13 5 -14 0 -19 -2 -12 -5z"/>
<path d="M5258 953 c6 -2 18 -2 25 0 6 3 1 5 -13 5 -14 0 -19 -2 -12 -5z"/>
<path d="M5318 943 c7 -3 16 -2 19 1 4 3 -2 6 -13 5 -11 0 -14 -3 -6 -6z"/>
<path d="M5368 933 c7 -3 16 -2 19 1 4 3 -2 6 -13 5 -11 0 -14 -3 -6 -6z"/>
<path d="M5428 923 c12 -2 30 -2 40 0 9 3 -1 5 -23 4 -22 0 -30 -2 -17 -4z"/>
<path d="M5518 913 c6 -2 18 -2 25 0 6 3 1 5 -13 5 -14 0 -19 -2 -12 -5z"/>
<path d="M5583 903 c9 -2 23 -2 30 0 6 3 -1 5 -18 5 -16 0 -22 -2 -12 -5z"/>
<path d="M5688 893 c7 -3 16 -2 19 1 4 3 -2 6 -13 5 -11 0 -14 -3 -6 -6z"/>
</g>
</svg>
